<?xml version="1.0" encoding="UTF-8"?>
<svg xmlns="http://www.w3.org/2000/svg" xmlns:xlink="http://www.w3.org/1999/xlink" width="16px" height="16px" viewBox="0 0 16 16" version="1.1">
<g id="surface1">
<path style=" stroke:none;fill-rule:nonzero;fill:rgb(0%,0%,0%);fill-opacity:1;" d="M 12.433594 10.222656 L 11.441406 9.425781 C 11.105469 9.152344 10.625 9.136719 10.273438 9.390625 L 9.328125 10.078125 C 9.199219 10.175781 9.023438 10.160156 8.910156 10.046875 L 7.359375 8.640625 L 5.9375 7.070312 C 5.824219 6.960938 5.808594 6.785156 5.902344 6.65625 L 6.59375 5.710938 C 6.847656 5.359375 6.832031 4.878906 6.558594 4.542969 L 5.761719 3.550781 C 5.40625 3.105469 4.734375 3.070312 4.335938 3.472656 L 3.472656 4.335938 C 3.28125 4.527344 3.183594 4.800781 3.183594 5.054688 C 3.296875 7.089844 4.222656 9.023438 5.585938 10.382812 C 6.945312 11.742188 8.863281 12.671875 10.910156 12.785156 C 11.183594 12.800781 11.441406 12.6875 11.632812 12.496094 L 12.496094 11.632812 C 12.929688 11.246094 12.878906 10.574219 12.433594 10.222656 Z M 12.433594 10.222656 "/>
</g>
</svg>
