<?xml version="1.0" encoding="UTF-8"?>
<svg xmlns="http://www.w3.org/2000/svg" xmlns:xlink="http://www.w3.org/1999/xlink" width="16px" height="16px" viewBox="0 0 16 16" version="1.1">
<g id="surface1">
<path style=" stroke:none;fill-rule:nonzero;fill:rgb(0%,0%,0%);fill-opacity:1;" d="M 7.992188 0 C 4.933594 0 2.445312 2.488281 2.445312 5.546875 C 2.445312 8.492188 7.480469 15.375 7.695312 15.664062 L 7.894531 15.9375 C 7.917969 15.96875 7.953125 15.988281 7.992188 15.988281 C 8.035156 15.988281 8.070312 15.96875 8.09375 15.9375 L 8.292969 15.664062 C 8.507812 15.375 13.542969 8.492188 13.542969 5.546875 C 13.542969 2.488281 11.054688 0 7.992188 0 Z M 7.992188 3.5625 C 9.089844 3.5625 9.980469 4.453125 9.980469 5.546875 C 9.980469 6.644531 9.089844 7.535156 7.992188 7.535156 C 6.898438 7.535156 6.007812 6.644531 6.007812 5.546875 C 6.007812 4.453125 6.898438 3.5625 7.992188 3.5625 Z M 7.992188 3.5625 "/>
</g>
</svg>
